<svg width="124" height="124" viewBox="0 0 124 124" fill="none" xmlns="http://www.w3.org/2000/svg">
<rect width="124" height="124" rx="32" fill="white"/>
<path fill-rule="evenodd" clip-rule="evenodd" d="M51.5026 66.3331H67.7171L59.8311 42.5445H59.4625L51.5026 66.3331ZM36.7625 82.8596H40.595L57.2514 35.2818H66.1694L82.8252 82.8596H86.6578V87.0092H66.8322V82.8596H73.1712L68.97 70.6318H50.1764L46.1229 82.8596H52.4607V87.0092H36.7625V82.8596Z" fill="black"/>
<path fill-rule="evenodd" clip-rule="evenodd" d="M16.0727 28.6769H12.0002V32.7619V91.2381V95.3231H16.0727H20.7212V91.2381H16.0727V32.7619H20.7212V28.6769H16.0727Z" fill="black"/>
<path fill-rule="evenodd" clip-rule="evenodd" d="M24.2095 24V28.117V95.8836V100H38.163V95.8836H28.2871V28.117H38.163V24H24.2095Z" fill="black"/>
<path fill-rule="evenodd" clip-rule="evenodd" d="M98.6279 24V28.117V95.8836V100H84.6744V95.8836H94.5503V28.117H84.6744V24H98.6279Z" fill="black"/>
<path fill-rule="evenodd" clip-rule="evenodd" d="M106.765 28.6769H110.837V32.7619V91.2381V95.3231H106.765H102.116V91.2381H106.765V32.7619H102.116V28.6769H106.765Z" fill="black"/>
</svg>
